<?xml version="1.0" encoding="utf-8"?>
<!-- Generator: Adobe Illustrator 16.0.4, SVG Export Plug-In . SVG Version: 6.00 Build 0)  -->
<!DOCTYPE svg PUBLIC "-//W3C//DTD SVG 1.1//EN" "http://www.w3.org/Graphics/SVG/1.1/DTD/svg11.dtd">
<svg version="1.1" id="Layer_1" xmlns="http://www.w3.org/2000/svg" xmlns:xlink="http://www.w3.org/1999/xlink" x="0px" y="0px"
	 width="72px" height="72px" viewBox="0 0 72 72" enable-background="new 0 0 72 72" xml:space="preserve">
<path id="Facebook__x28_alt_x29_" fill="#4E4E4E" d="M72,12.001C72,5.695,66.308,0,60,0H12.001C5.693,0,0,5.695,0,12.001v47.998
	C0,66.305,5.693,72,12.001,72H36V44.8h-8.8v-12H36v-4.675C36,20.062,42.056,12.8,49.5,12.8h9.699v12H49.5
	c-1.062,0-2.3,1.289-2.3,3.22V32.8h11.999v12H47.2V72H60c6.308,0,12-5.695,12-12.001V12.001z"/>
</svg>
