<?xml version="1.0" encoding="utf-8"?>
<!-- Generator: Adobe Illustrator 16.0.4, SVG Export Plug-In . SVG Version: 6.00 Build 0)  -->
<!DOCTYPE svg PUBLIC "-//W3C//DTD SVG 1.1//EN" "http://www.w3.org/Graphics/SVG/1.1/DTD/svg11.dtd">
<svg version="1.1" id="Layer_1" xmlns="http://www.w3.org/2000/svg" xmlns:xlink="http://www.w3.org/1999/xlink" x="0px" y="0px"
	 width="72px" height="72px" viewBox="0 0 72 72" enable-background="new 0 0 72 72" xml:space="preserve">
<path fill="#575858" d="M60,0H12.001C5.693,0,0,5.695,0,12.001v47.998C0,66.305,5.693,72,12.001,72H60c6.309,0,12-5.695,12-12.001
	V12.001C72,5.695,66.309,0,60,0z M60.803,23.279c0.025,0.55,0.038,1.102,0.038,1.656c0,16.911-12.873,36.412-36.412,36.412
	c-7.227,0-13.954-2.119-19.617-5.749c1.001,0.117,2.02,0.179,3.053,0.179c5.994,0,11.513-2.047,15.893-5.479
	c-5.601-0.103-10.327-3.803-11.955-8.889c0.782,0.15,1.583,0.23,2.407,0.23c1.167,0,2.298-0.157,3.372-0.45
	c-5.855-1.175-10.265-6.346-10.265-12.547c0-0.055,0-0.107,0.001-0.162c1.725,0.959,3.698,1.535,5.796,1.601
	C9.68,27.786,7.421,23.87,7.421,19.431c0-2.346,0.631-4.545,1.732-6.434c6.312,7.742,15.743,12.837,26.378,13.371
	c-0.219-0.937-0.333-1.914-0.333-2.917c0-7.067,5.73-12.797,12.797-12.797c3.682,0,7.009,1.554,9.342,4.041
	c2.916-0.573,5.654-1.639,8.128-3.105c-0.956,2.989-2.985,5.498-5.627,7.082c2.59-0.31,5.056-0.998,7.351-2.015
	C65.473,19.221,63.304,21.474,60.803,23.279z"/>
</svg>
